<mxfile host="app.diagrams.net" modified="2020-11-28T07:24:47.146Z" agent="5.0 (Windows NT 10.0; Win64; x64) AppleWebKit/537.36 (KHTML, like Gecko) Chrome/86.0.4240.198 Safari/537.36" etag="DOfbG2IYj30YNo7dbAhi" version="13.9.8" type="github">
  <diagram id="mjOT3oKJKtB41oCjXlv4" name="ページ1">
    <mxGraphModel dx="1851" dy="1700" grid="1" gridSize="10" guides="1" tooltips="1" connect="1" arrows="1" fold="1" page="1" pageScale="1" pageWidth="827" pageHeight="1169" math="0" shadow="0">
      <root>
        <mxCell id="0" />
        <mxCell id="1" parent="0" />
        <mxCell id="yHXeytotB6uwmyDr7-Uf-2" value="&lt;span&gt;情報系&lt;/span&gt;&lt;br&gt;&lt;span&gt;Webサーバ&lt;/span&gt;&lt;br&gt;&lt;span&gt;#1&lt;/span&gt;" style="shape=ext;double=1;rounded=1;whiteSpace=wrap;html=1;" vertex="1" parent="1">
          <mxGeometry x="260" y="100" width="90" height="60" as="geometry" />
        </mxCell>
        <mxCell id="yHXeytotB6uwmyDr7-Uf-6" value="" style="image;html=1;image=img/lib/clip_art/computers/Netbook_128x128.png" vertex="1" parent="1">
          <mxGeometry x="-220" y="125" width="80" height="80" as="geometry" />
        </mxCell>
        <mxCell id="yHXeytotB6uwmyDr7-Uf-7" value="" style="image;html=1;image=img/lib/clip_art/computers/Server_Tower_128x128.png" vertex="1" parent="1">
          <mxGeometry x="160" y="-90" width="80" height="80" as="geometry" />
        </mxCell>
        <mxCell id="yHXeytotB6uwmyDr7-Uf-11" value="&lt;span&gt;情報系&lt;/span&gt;&lt;br&gt;&lt;span&gt;Webサーバ&lt;/span&gt;&lt;br&gt;&lt;span&gt;#2&lt;/span&gt;" style="shape=ext;double=1;rounded=1;whiteSpace=wrap;html=1;" vertex="1" parent="1">
          <mxGeometry x="260" y="280" width="90" height="60" as="geometry" />
        </mxCell>
        <mxCell id="yHXeytotB6uwmyDr7-Uf-13" value="" style="points=[[0.015,0.015,0],[0.985,0.015,0],[0.985,0.985,0],[0.015,0.985,0],[0.25,0,0],[0.5,0,0],[0.75,0,0],[1,0.25,0],[1,0.5,0],[1,0.75,0],[0.75,1,0],[0.5,1,0],[0.25,1,0],[0,0.75,0],[0,0.5,0],[0,0.25,0]];verticalLabelPosition=bottom;html=1;verticalAlign=top;aspect=fixed;align=center;pointerEvents=1;shape=mxgraph.cisco19.rect;prIcon=l3_switch;fillColor=#FAFAFA;strokeColor=#005073;" vertex="1" parent="1">
          <mxGeometry x="20" y="140" width="50" height="50" as="geometry" />
        </mxCell>
        <mxCell id="yHXeytotB6uwmyDr7-Uf-14" value="" style="points=[[0.015,0.015,0],[0.985,0.015,0],[0.985,0.985,0],[0.015,0.985,0],[0.25,0,0],[0.5,0,0],[0.75,0,0],[1,0.25,0],[1,0.5,0],[1,0.75,0],[0.75,1,0],[0.5,1,0],[0.25,1,0],[0,0.75,0],[0,0.5,0],[0,0.25,0]];verticalLabelPosition=bottom;html=1;verticalAlign=top;aspect=fixed;align=center;pointerEvents=1;shape=mxgraph.cisco19.rect;prIcon=l2_switch;fillColor=#FAFAFA;strokeColor=#005073;" vertex="1" parent="1">
          <mxGeometry x="120" y="70" width="50" height="50" as="geometry" />
        </mxCell>
        <mxCell id="yHXeytotB6uwmyDr7-Uf-16" value="勘定系&lt;br&gt;DBサーバ" style="shape=cylinder3;whiteSpace=wrap;html=1;boundedLbl=1;backgroundOutline=1;size=9.999984741210938;" vertex="1" parent="1">
          <mxGeometry x="670" y="40" width="60" height="80" as="geometry" />
        </mxCell>
        <mxCell id="yHXeytotB6uwmyDr7-Uf-17" value="情報系&lt;br&gt;DBサーバ" style="shape=cylinder3;whiteSpace=wrap;html=1;boundedLbl=1;backgroundOutline=1;size=9.199981689453125;" vertex="1" parent="1">
          <mxGeometry x="670" y="230" width="60" height="80" as="geometry" />
        </mxCell>
        <mxCell id="yHXeytotB6uwmyDr7-Uf-18" value="検索サーバ" style="shape=ext;double=1;rounded=1;whiteSpace=wrap;html=1;" vertex="1" parent="1">
          <mxGeometry x="420" y="350" width="90" height="60" as="geometry" />
        </mxCell>
        <mxCell id="yHXeytotB6uwmyDr7-Uf-19" value="帳票サーバ" style="shape=ext;double=1;rounded=1;whiteSpace=wrap;html=1;" vertex="1" parent="1">
          <mxGeometry x="420" y="420" width="90" height="60" as="geometry" />
        </mxCell>
        <mxCell id="yHXeytotB6uwmyDr7-Uf-20" value="勘定系&lt;br&gt;Webサーバ&lt;br&gt;#1" style="shape=ext;double=1;rounded=1;whiteSpace=wrap;html=1;" vertex="1" parent="1">
          <mxGeometry x="260" y="30" width="90" height="60" as="geometry" />
        </mxCell>
        <mxCell id="yHXeytotB6uwmyDr7-Uf-22" value="&lt;span&gt;勘定系&lt;/span&gt;&lt;br&gt;&lt;span&gt;Webサーバ&lt;/span&gt;&lt;br&gt;&lt;span&gt;#2&lt;/span&gt;" style="shape=ext;double=1;rounded=1;whiteSpace=wrap;html=1;" vertex="1" parent="1">
          <mxGeometry x="260" y="210" width="90" height="60" as="geometry" />
        </mxCell>
        <mxCell id="yHXeytotB6uwmyDr7-Uf-24" value="運用管理&lt;br&gt;サーバ&lt;br&gt;#1" style="shape=ext;double=1;rounded=1;whiteSpace=wrap;html=1;" vertex="1" parent="1">
          <mxGeometry x="260" y="-60" width="90" height="60" as="geometry" />
        </mxCell>
        <mxCell id="yHXeytotB6uwmyDr7-Uf-25" value="制御サーバ#1" style="shape=ext;double=1;rounded=1;whiteSpace=wrap;html=1;" vertex="1" parent="1">
          <mxGeometry x="369" y="-60" width="90" height="60" as="geometry" />
        </mxCell>
        <mxCell id="yHXeytotB6uwmyDr7-Uf-28" value="検索&lt;br&gt;DBサーバ" style="shape=cylinder3;whiteSpace=wrap;html=1;boundedLbl=1;backgroundOutline=1;size=8.399993896484375;" vertex="1" parent="1">
          <mxGeometry x="670" y="340" width="60" height="80" as="geometry" />
        </mxCell>
        <mxCell id="yHXeytotB6uwmyDr7-Uf-29" value="運用管理&lt;br&gt;サーバ&lt;br&gt;#2" style="shape=ext;double=1;rounded=1;whiteSpace=wrap;html=1;" vertex="1" parent="1">
          <mxGeometry x="250" y="525" width="90" height="60" as="geometry" />
        </mxCell>
        <mxCell id="yHXeytotB6uwmyDr7-Uf-30" value="" style="ellipse;shape=cloud;whiteSpace=wrap;html=1;" vertex="1" parent="1">
          <mxGeometry x="-110" y="140" width="80" height="50" as="geometry" />
        </mxCell>
        <mxCell id="yHXeytotB6uwmyDr7-Uf-31" value="" style="points=[[0.015,0.015,0],[0.985,0.015,0],[0.985,0.985,0],[0.015,0.985,0],[0.25,0,0],[0.5,0,0],[0.75,0,0],[1,0.25,0],[1,0.5,0],[1,0.75,0],[0.75,1,0],[0.5,1,0],[0.25,1,0],[0,0.75,0],[0,0.5,0],[0,0.25,0]];verticalLabelPosition=bottom;html=1;verticalAlign=top;aspect=fixed;align=center;pointerEvents=1;shape=mxgraph.cisco19.rect;prIcon=l2_switch;fillColor=#FAFAFA;strokeColor=#005073;" vertex="1" parent="1">
          <mxGeometry x="120" y="230" width="50" height="50" as="geometry" />
        </mxCell>
        <mxCell id="yHXeytotB6uwmyDr7-Uf-32" value="" style="image;html=1;image=img/lib/clip_art/computers/Server_Tower_128x128.png" vertex="1" parent="1">
          <mxGeometry x="160" y="410" width="80" height="80" as="geometry" />
        </mxCell>
        <mxCell id="yHXeytotB6uwmyDr7-Uf-33" value="勘定系&lt;br&gt;APサーバ&lt;br&gt;#1" style="shape=ext;double=1;rounded=1;whiteSpace=wrap;html=1;" vertex="1" parent="1">
          <mxGeometry x="490" y="30" width="90" height="60" as="geometry" />
        </mxCell>
        <mxCell id="yHXeytotB6uwmyDr7-Uf-34" value="&lt;span&gt;情報系&lt;/span&gt;&lt;br&gt;&lt;span&gt;APサーバ&lt;/span&gt;&lt;br&gt;&lt;span&gt;#1&lt;/span&gt;" style="shape=ext;double=1;rounded=1;whiteSpace=wrap;html=1;" vertex="1" parent="1">
          <mxGeometry x="490" y="100" width="90" height="60" as="geometry" />
        </mxCell>
        <mxCell id="yHXeytotB6uwmyDr7-Uf-35" value="&lt;span&gt;勘定系&lt;/span&gt;&lt;br&gt;&lt;span&gt;APサーバ&lt;/span&gt;&lt;br&gt;&lt;span&gt;#2&lt;/span&gt;" style="shape=ext;double=1;rounded=1;whiteSpace=wrap;html=1;" vertex="1" parent="1">
          <mxGeometry x="490" y="210" width="90" height="60" as="geometry" />
        </mxCell>
        <mxCell id="yHXeytotB6uwmyDr7-Uf-36" value="&lt;span&gt;情報系&lt;/span&gt;&lt;br&gt;&lt;span&gt;APサーバ&lt;/span&gt;&lt;br&gt;&lt;span&gt;#2&lt;/span&gt;" style="shape=ext;double=1;rounded=1;whiteSpace=wrap;html=1;" vertex="1" parent="1">
          <mxGeometry x="490" y="280" width="90" height="60" as="geometry" />
        </mxCell>
        <mxCell id="yHXeytotB6uwmyDr7-Uf-37" value="" style="points=[[0.015,0.015,0],[0.985,0.015,0],[0.985,0.985,0],[0.015,0.985,0],[0.25,0,0],[0.5,0,0],[0.75,0,0],[1,0.25,0],[1,0.5,0],[1,0.75,0],[0.75,1,0],[0.5,1,0],[0.25,1,0],[0,0.75,0],[0,0.5,0],[0,0.25,0]];verticalLabelPosition=bottom;html=1;verticalAlign=top;aspect=fixed;align=center;pointerEvents=1;shape=mxgraph.cisco19.rect;prIcon=l2_switch;fillColor=#FAFAFA;strokeColor=#005073;" vertex="1" parent="1">
          <mxGeometry x="389" y="70" width="50" height="50" as="geometry" />
        </mxCell>
        <mxCell id="yHXeytotB6uwmyDr7-Uf-38" value="" style="points=[[0.015,0.015,0],[0.985,0.015,0],[0.985,0.985,0],[0.015,0.985,0],[0.25,0,0],[0.5,0,0],[0.75,0,0],[1,0.25,0],[1,0.5,0],[1,0.75,0],[0.75,1,0],[0.5,1,0],[0.25,1,0],[0,0.75,0],[0,0.5,0],[0,0.25,0]];verticalLabelPosition=bottom;html=1;verticalAlign=top;aspect=fixed;align=center;pointerEvents=1;shape=mxgraph.cisco19.rect;prIcon=l2_switch;fillColor=#FAFAFA;strokeColor=#005073;" vertex="1" parent="1">
          <mxGeometry x="389" y="250" width="50" height="50" as="geometry" />
        </mxCell>
        <mxCell id="yHXeytotB6uwmyDr7-Uf-39" value="制御サーバ#2" style="shape=ext;double=1;rounded=1;whiteSpace=wrap;html=1;" vertex="1" parent="1">
          <mxGeometry x="360" y="525" width="90" height="60" as="geometry" />
        </mxCell>
      </root>
    </mxGraphModel>
  </diagram>
</mxfile>
